<?xml version="1.0" encoding="iso-8859-1"?>
<!-- Generator: Adobe Illustrator 19.0.0, SVG Export Plug-In . SVG Version: 6.00 Build 0)  -->
<svg version="1.1" id="Capa_1" xmlns="http://www.w3.org/2000/svg" xmlns:xlink="http://www.w3.org/1999/xlink" x="0px" y="0px"
	 viewBox="0 0 490 490" style="enable-background:new 0 0 490 490;" xml:space="preserve">
<g>
	<g>
		<g>
			<path d="M245,86.3c-103.8,0-188.2,84.4-188.2,188.2S141.2,462.8,245,462.8s188.2-84.4,188.2-188.2S348.8,86.3,245,86.3z
				 M245,432.8c-87.1,0-158.3-71.2-158.3-158.3S157.9,116.3,245,116.3s158.3,71.2,158.3,158.3S332.1,432.8,245,432.8z"/>
			<path d="M298.3,283.5c-31.1,0-56,25.3-56,56c0,31.1,25.3,56,56,56c31.1,0,56-25.3,56-56S329.4,283.5,298.3,283.5z M272.2,350.4
				c-5.8,0-10.9-4.7-10.9-10.9c0-5.8,4.7-10.9,10.9-10.9c5.8,0,10.9,4.7,10.9,10.9C283.1,345.7,278.1,350.4,272.2,350.4z
				 M324.7,350.4c-5.8,0-10.9-4.7-10.9-10.9c0-5.8,4.7-10.9,10.9-10.9c5.8,0,10.9,4.7,10.9,10.9
				C335.2,345.7,330.6,350.4,324.7,350.4z"/>
			<path d="M164.5,229.4c-31.1,0-56,25.3-56,56s25.3,56,56,56c31.1,0,56-25.3,56-56S195.6,229.4,164.5,229.4z M138.4,296.3
				c-5.8,0-10.9-4.7-10.9-10.9c0-6.2,4.7-10.9,10.9-10.9c5.8,0,10.9,4.7,10.9,10.9C149.3,291.7,144.3,296.3,138.4,296.3z
				 M190.9,296.3c-5.8,0-10.9-4.7-10.9-10.9c0-6.2,4.7-10.9,10.9-10.9c5.8,0,10.9,4.7,10.9,10.9
				C201.8,291.7,196.8,296.3,190.9,296.3z"/>
			<path d="M279.2,146.2c-31.1,0-56,25.3-56,56c0,31.1,25.3,56,56,56c31.1,0,56-25.3,56-56S310.3,146.2,279.2,146.2z M297.9,230.6
				c0,2.7-2.3,5.1-5.1,5.1H266c-2.7,0-5.1-2.3-5.1-5.1v-56.8c0-2.7,2.3-5.1,5.1-5.1h26.8c2.7,0,5.1,2.3,5.1,5.1V230.6z"/>
			<path d="M387.3,123.3L369.1,5.4c-0.8-3.1-3.5-5.4-6.6-5.4H127.6c-3.1,0-6.2,2.3-6.6,5.4l-18.7,117.4
				c37.3-35,87.5-56.4,142.3-56.4C300.2,66.5,350,88.3,387.3,123.3z M150.9,47.4c-2.3-9.7,4.3-19.4,15.2-21.8
				c52.1-10.1,105.8-10.1,157.9,0c10.9,1.9,17.5,12.1,15.2,21.8S327.1,63,317.4,61c-47.8-8.9-96.8-8.9-144.3,0
				C162.9,63,153.2,57.2,150.9,47.4z"/>
			<path d="M113.6,435.6l8.6,54.4H368l8.6-54.4c-35.8,29.6-81.7,47.1-131.4,47.1S149.3,464.7,113.6,435.6z"/>
		</g>
	</g>
</g>
<g>
</g>
<g>
</g>
<g>
</g>
<g>
</g>
<g>
</g>
<g>
</g>
<g>
</g>
<g>
</g>
<g>
</g>
<g>
</g>
<g>
</g>
<g>
</g>
<g>
</g>
<g>
</g>
<g>
</g>
</svg>
